<svg xmlns="http://www.w3.org/2000/svg" version="1.1" xmlns:xlink="http://www.w3.org/1999/xlink" xmlns:svgjs="http://svgjs.dev/svgjs" width="1500" height="412" viewBox="0 0 1500 412"><g transform="matrix(1,0,0,1,-0.9090909090909918,-0.11494408318051796)"><svg viewBox="0 0 396 109" data-background-color="#ffffff" preserveAspectRatio="xMidYMid meet" height="412" width="1500" xmlns="http://www.w3.org/2000/svg" xmlns:xlink="http://www.w3.org/1999/xlink"><g id="tight-bounds" transform="matrix(1,0,0,1,0.2400000000000091,0.03040996375406735)"><svg viewBox="0 0 395.52 108.93918007249188" height="108.93918007249188" width="395.52"><g><svg viewBox="0 0 574.6497828724566 158.2773972870169" height="108.93918007249188" width="395.52"><g><svg viewBox="0 0 397.4975999999999 158.2773972870169" height="158.2773972870169" width="397.4975999999999"><g id="textblocktransform"><svg viewBox="0 0 397.4975999999999 158.2773972870169" height="158.2773972870169" width="397.4975999999999" id="textblock"><g><rect width="397.4975999999999" height="9.4915549383665" x="0" y="116.43116574669398" fill="#2e30ff" opacity="1" stroke-width="0" stroke="transparent" fill-opacity="1" class="rect-yte-0" data-fill-palette-color="primary" rx="1%" id="yte-0" data-palette-color="#2e30ff"></rect></g><g transform="matrix(1,0,0,1,0.9887999999999693,0)"><svg viewBox="0 0 395.52 105.25001464128842" height="105.25001464128842" width="395.52"><g transform="matrix(1,0,0,1,0,0)"><svg width="395.52" viewBox="-1.35 -35.65 136.59 36.35" height="105.25001464128842" data-palette-color="#2e30ff"><path d="M18.7-12.2Q16.7-12.25 13.05-12.25 9.4-12.25 7.5-12.2L7.5-12.2Q6.1-6.6 5.78-4.78 5.45-2.95 5.45-0.85L5.45-0.85 5.45 0-1.35 0-1.35-0.5Q0.9-2.25 4.67-14.38 8.45-26.5 9.58-30.25 10.7-34 10.8-35.05L10.8-35.05 16.65-35.65Q16.65-33.9 19.8-24.73 22.95-15.55 24.88-10.55 26.8-5.55 27.85-3.6 28.9-1.65 30.2-0.5L30.2-0.5 30.2 0 21.8 0 21.8-0.85Q21.8-2.65 21.33-4.2 20.85-5.75 20.7-6.2L20.7-6.2 18.7-12.2ZM12.9-31.3L12.9-31.3Q11.9-28.65 8.1-15.05L8.1-15.05 17.85-15.05Q16.95-17.8 15.2-23.7 13.45-29.6 12.9-31.3ZM53.25-16.05L53.25-16.05 53.25-7Q53.25-3 54-0.35L54-0.35 54 0 47.8 0 47.8-0.35Q48.55-3 48.55-7L48.55-7 48.55-15Q48.55-17.85 47.8-19.18 47.05-20.5 44.8-20.5 42.55-20.5 38.75-17.95L38.75-17.95 38.75-8.5Q38.75-3.65 40.2-0.35L40.2-0.35 40.2 0 33.2 0 33.2-0.35Q34.05-2.85 34.05-7L34.05-7 34.05-15.5Q34.05-17.65 33.17-19.73 32.3-21.8 31.15-22.5L31.15-22.5 31.1-23.1 37.65-24.65 37.95-24.15Q38.35-22.3 38.55-20.4L38.55-20.4Q40.35-21.95 41.12-22.58 41.9-23.2 43.32-23.9 44.75-24.6 46-24.6L46-24.6Q51.15-24.6 52.65-20.15L52.65-20.15Q57.8-24.6 60.7-24.6L60.7-24.6Q64.2-24.6 66.15-22.3 68.1-20 68.1-15.7L68.1-15.7 68.1-8.5Q68.1-3.75 69.6-0.35L69.6-0.35 69.6 0 62.55 0 62.55-0.35Q63.4-2.85 63.4-7L63.4-7 63.4-14.65Q63.4-20.5 59.75-20.5L59.75-20.5Q56.7-20.5 53.15-17.9L53.15-17.9Q53.25-16.7 53.25-16.05ZM88.84-5.3L88.84-10Q86.8-10.75 84.12-10.75 81.44-10.75 80.25-9.9L80.25-9.9Q79.5-8.75 79.5-6.83 79.5-4.9 80.55-3.8 81.59-2.7 83.17-2.7 84.75-2.7 86.39-3.53 88.05-4.35 88.84-5.3L88.84-5.3ZM89.64-2.8L89.64-2.8Q86.59 0.55 82.77 0.55 78.94 0.55 76.77-1.1 74.59-2.75 74.59-6.43 74.59-10.1 77.17-11.7 79.75-13.3 84.44-13.3L84.44-13.3 88.84-13.15 88.84-16Q88.84-18.65 87.55-20.3 86.25-21.95 83.59-21.95L83.59-21.95Q81.64-21.9 77.34-18.2L77.34-18.2Q75.89-20.05 75.3-23L75.3-23Q80.25-24.6 84.39-24.6 88.55-24.6 91.05-22.45 93.55-20.3 93.55-16.35L93.55-16.35 93.55-7.95Q93.59-5.7 94.27-3.78 94.94-1.85 96.05-1.1L96.05-1.1 96.14-0.6 90.8 0.7Q90.14-0.9 89.64-2.8ZM114.44-24.6L114.44-24.6Q115.99-24.6 116.74-24.25L116.74-24.25Q116.74-23.95 116.74-23.65L116.74-23.65Q116.74-20.7 115.84-18.3L115.84-18.3Q113.59-19.75 110.74-19.75L110.74-19.75Q109.19-19.75 107.64-19.2L107.64-19.2 107.64-8.5Q107.64-3.65 109.09-0.35L109.09-0.35 109.09 0 102.09 0 102.09-0.35Q102.94-2.85 102.94-7L102.94-7 102.94-15.5Q102.94-17.65 102.07-19.73 101.19-21.8 100.04-22.5L100.04-22.5 99.99-23.1 105.89-24.65Q106.69-23.3 107.19-21.5L107.19-21.5Q110.19-24.6 114.44-24.6ZM127.89-21.2L127.89-5.6Q127.89-2.95 129.49-2.95L129.49-2.95Q130.84-2.95 134.04-4.55L134.04-4.55 135.09-2.8Q133.49-1.7 131.09-0.58 128.69 0.55 126.69 0.55 124.69 0.55 123.94-0.7 123.19-1.95 123.19-4.3L123.19-4.3 123.19-21.15 118.69-20.9 119.89-24.15Q120.79-24.05 123.09-23.95L123.09-23.95Q122.99-26.45 122.79-28.45L122.79-28.45 127.89-29.75 127.89-24Q130.59-24.1 135.24-24.6L135.24-24.6 133.84-20.7Q131.14-21.1 127.89-21.2L127.89-21.2Z" opacity="1" transform="matrix(1,0,0,1,0,0)" fill="#2e30ff" class="wordmark-text-0" data-fill-palette-color="primary" id="text-0"></path></svg></g></svg></g><g transform="matrix(1,0,0,1,0,137.10387179046606)"><svg viewBox="0 0 232.20979199999996 21.173525496550855" height="21.173525496550855" width="232.20979199999996"><g transform="matrix(1,0,0,1,0,0)"><svg width="232.20979199999996" viewBox="0.5 -35.75 398.61 36.35" height="21.173525496550855" data-palette-color="#2e30ff"><path d="M16.3 0L11.6 0 11.6-29.35 0.5-29.35 0.5-33.4 27.4-33.4 27.4-29.35 16.3-29.35 16.3 0ZM35.6 0L31.4 0 31.4-33.4 35.6-33.4 35.6-21.05Q36.65-22.8 38.55-24 40.45-25.2 43.6-25.2L43.6-25.2Q48.1-25.2 49.95-22.58 51.8-19.95 51.8-15.7L51.8-15.7 51.8 0 47.6 0 47.6-14.45Q47.6-16.35 47.25-17.98 46.9-19.6 45.72-20.6 44.55-21.6 42.15-21.6L42.15-21.6Q39.1-21.6 37.35-19.53 35.6-17.45 35.6-13.45L35.6-13.45 35.6 0ZM68.7 0.6L68.7 0.6Q64.8 0.6 62.1-1.13 59.4-2.85 57.97-5.78 56.55-8.7 56.55-12.35L56.55-12.35Q56.55-16.3 58.15-19.18 59.75-22.05 62.47-23.63 65.2-25.2 68.6-25.2L68.6-25.2Q71.55-25.2 73.8-24.03 76.05-22.85 77.52-20.88 79-18.9 79.67-16.4 80.35-13.9 80.15-11.25L80.15-11.25 61.05-11.25Q61.15-8.15 62.42-6.35 63.7-4.55 65.45-3.83 67.2-3.1 68.7-3.1L68.7-3.1Q70.8-3.1 72.22-3.78 73.65-4.45 74.5-5.55L74.5-5.55 78.55-4.35Q77.2-2.2 74.7-0.8 72.2 0.6 68.7 0.6ZM61.1-14.6L61.1-14.6 75.7-14.6Q75.7-16.35 74.82-17.95 73.95-19.55 72.37-20.58 70.8-21.6 68.6-21.6L68.6-21.6Q66.75-21.6 65.1-20.9 63.45-20.2 62.37-18.65 61.3-17.1 61.1-14.6ZM104.09 0L99.39 0 99.39-33.4 107.19-33.4 116.09-6.1 124.99-33.4 132.79-33.4 132.79 0 128.09 0 128.09-28.5 118.44 0 113.79 0 104.09-28.5 104.09 0ZM150.64 0.6L150.64 0.6Q146.74 0.6 144.04-1.13 141.34-2.85 139.91-5.78 138.49-8.7 138.49-12.35L138.49-12.35Q138.49-16.3 140.09-19.18 141.69-22.05 144.41-23.63 147.14-25.2 150.54-25.2L150.54-25.2Q153.49-25.2 155.74-24.03 157.99-22.85 159.46-20.88 160.94-18.9 161.61-16.4 162.29-13.9 162.09-11.25L162.09-11.25 142.99-11.25Q143.09-8.15 144.36-6.35 145.64-4.55 147.39-3.83 149.14-3.1 150.64-3.1L150.64-3.1Q152.74-3.1 154.16-3.78 155.59-4.45 156.44-5.55L156.44-5.55 160.49-4.35Q159.14-2.2 156.64-0.8 154.14 0.6 150.64 0.6ZM143.04-14.6L143.04-14.6 157.64-14.6Q157.64-16.35 156.76-17.95 155.89-19.55 154.31-20.58 152.74-21.6 150.54-21.6L150.54-21.6Q148.69-21.6 147.04-20.9 145.39-20.2 144.31-18.65 143.24-17.1 143.04-14.6ZM171.24 0L167.04 0 167.04-24.8 170.14-24.8 171.24-21.05Q172.29-22.8 174.19-24 176.09-25.2 179.24-25.2L179.24-25.2Q183.74-25.2 185.59-22.58 187.44-19.95 187.44-15.7L187.44-15.7 187.44 0 183.24 0 183.24-14.45Q183.24-16.35 182.89-17.98 182.54-19.6 181.36-20.6 180.19-21.6 177.79-21.6L177.79-21.6Q174.74-21.6 172.99-19.53 171.24-17.45 171.24-13.45L171.24-13.45 171.24 0ZM213.33 0L208.63 0 208.63-33.4 230.33-33.4 230.33-29.35 213.33-29.35 213.33-19.2 230.33-19.2 230.33-15.15 213.33-15.15 213.33 0ZM241.58 0.6L241.58 0.6Q239.23 0.6 237.28-0.25 235.33-1.1 234.18-2.7 233.03-4.3 233.03-6.55L233.03-6.55Q233.03-9.5 235.1-11.2 237.18-12.9 240.95-13.83 244.73-14.75 249.78-15.3L249.78-15.3Q249.88-18.45 248.53-20.15 247.18-21.85 244.18-21.85L244.18-21.85Q241.93-21.85 240.5-20.83 239.08-19.8 238.68-18L238.68-18 234.63-19.2Q235.63-22.05 238.2-23.63 240.78-25.2 244.13-25.2L244.13-25.2Q249.28-25.2 251.65-22.78 254.03-20.35 254.03-15.15L254.03-15.15 254.03-9.35Q254.03-6.25 254.28-4 254.53-1.75 254.88 0L254.88 0 251.03 0 250.03-3.4Q248.93-1.55 246.88-0.48 244.83 0.6 241.58 0.6ZM242.48-2.75L242.48-2.75Q244.43-2.75 246.18-3.45 247.93-4.15 249.03-5.83 250.13-7.5 250.13-10.4L250.13-10.4 250.13-11.95Q246.33-11.55 243.53-10.98 240.73-10.4 239.2-9.38 237.68-8.35 237.68-6.65L237.68-6.65Q237.68-4.9 238.95-3.83 240.23-2.75 242.48-2.75ZM269.38 0.6L269.38 0.6Q267.23 0.6 265.15-0.08 263.08-0.75 261.45-2.13 259.83-3.5 258.98-5.6L258.98-5.6 263.03-7.1Q263.58-4.9 265.45-3.93 267.33-2.95 269.38-2.95L269.38-2.95Q270.88-2.95 272.2-3.4 273.53-3.85 274.38-4.7 275.23-5.55 275.23-6.65L275.23-6.65Q275.23-8.7 273.6-9.55 271.98-10.4 269.73-10.85L269.73-10.85 266.28-11.55Q264.48-11.95 262.93-12.68 261.38-13.4 260.43-14.75 259.48-16.1 259.48-18.35L259.48-18.35Q259.48-20.6 260.88-22.13 262.28-23.65 264.45-24.45 266.63-25.25 269.03-25.25L269.03-25.25Q271.98-25.25 274.6-24.03 277.23-22.8 278.33-20.2L278.33-20.2 274.38-18.75Q273.73-20.25 272.1-20.98 270.48-21.7 268.73-21.7L268.73-21.7Q266.83-21.7 265.28-20.85 263.73-20 263.73-18.4L263.73-18.4Q263.73-16.8 265.05-16.07 266.38-15.35 268.33-14.95L268.33-14.95 271.58-14.3Q273.58-13.9 275.38-13.15 277.18-12.4 278.33-10.93 279.48-9.45 279.48-6.8L279.48-6.8Q279.48-4.45 278.03-2.8 276.58-1.15 274.28-0.28 271.98 0.6 269.38 0.6ZM288.67 0L284.47 0 284.47-33.4 288.67-33.4 288.67-21.05Q289.72-22.8 291.62-24 293.52-25.2 296.67-25.2L296.67-25.2Q301.17-25.2 303.02-22.58 304.87-19.95 304.87-15.7L304.87-15.7 304.87 0 300.67 0 300.67-14.45Q300.67-16.35 300.32-17.98 299.97-19.6 298.8-20.6 297.62-21.6 295.22-21.6L295.22-21.6Q292.17-21.6 290.42-19.53 288.67-17.45 288.67-13.45L288.67-13.45 288.67 0ZM316.07-29.5L316.07-29.5Q314.82-29.5 313.9-30.43 312.97-31.35 312.97-32.65L312.97-32.65Q312.97-33.95 313.9-34.85 314.82-35.75 316.07-35.75L316.07-35.75Q317.37-35.75 318.3-34.85 319.22-33.95 319.22-32.65L319.22-32.65Q319.22-31.35 318.3-30.43 317.37-29.5 316.07-29.5ZM318.17 0L313.97 0 313.97-21.45 310.52-21.45 310.52-24.8 318.17-24.8 318.17 0ZM335.97 0.6L335.97 0.6Q333.82 0.6 331.72-0.15 329.62-0.9 327.89-2.48 326.17-4.05 325.12-6.5 324.07-8.95 324.07-12.3L324.07-12.3Q324.07-15.65 325.12-18.1 326.17-20.55 327.89-22.13 329.62-23.7 331.72-24.45 333.82-25.2 335.97-25.2L335.97-25.2Q338.12-25.2 340.24-24.45 342.37-23.7 344.09-22.13 345.82-20.55 346.84-18.1 347.87-15.65 347.87-12.3L347.87-12.3Q347.87-8.95 346.84-6.5 345.82-4.05 344.09-2.48 342.37-0.9 340.24-0.15 338.12 0.6 335.97 0.6ZM335.97-3.1L335.97-3.1Q337.77-3.1 339.47-4.08 341.17-5.05 342.27-7.08 343.37-9.1 343.37-12.3L343.37-12.3Q343.37-15.5 342.27-17.53 341.17-19.55 339.47-20.53 337.77-21.5 335.97-21.5L335.97-21.5Q334.22-21.5 332.49-20.53 330.77-19.55 329.67-17.53 328.57-15.5 328.57-12.3L328.57-12.3Q328.57-9.1 329.67-7.08 330.77-5.05 332.49-4.08 334.22-3.1 335.97-3.1ZM357.47 0L353.27 0 353.27-24.8 356.37-24.8 357.47-21.05Q358.52-22.8 360.42-24 362.32-25.2 365.47-25.2L365.47-25.2Q369.97-25.2 371.82-22.58 373.67-19.95 373.67-15.7L373.67-15.7 373.67 0 369.47 0 369.47-14.45Q369.47-16.35 369.12-17.98 368.77-19.6 367.59-20.6 366.42-21.6 364.02-21.6L364.02-21.6Q360.97-21.6 359.22-19.53 357.47-17.45 357.47-13.45L357.47-13.45 357.47 0ZM389.01 0.6L389.01 0.6Q386.86 0.6 384.79-0.08 382.71-0.75 381.09-2.13 379.46-3.5 378.61-5.6L378.61-5.6 382.66-7.1Q383.21-4.9 385.09-3.93 386.96-2.95 389.01-2.95L389.01-2.95Q390.51-2.95 391.84-3.4 393.16-3.85 394.01-4.7 394.86-5.55 394.86-6.65L394.86-6.65Q394.86-8.7 393.24-9.55 391.61-10.4 389.36-10.85L389.36-10.85 385.91-11.55Q384.11-11.95 382.56-12.68 381.01-13.4 380.06-14.75 379.11-16.1 379.11-18.35L379.11-18.35Q379.11-20.6 380.51-22.13 381.91-23.65 384.09-24.45 386.26-25.25 388.66-25.25L388.66-25.25Q391.61-25.25 394.24-24.03 396.86-22.8 397.96-20.2L397.96-20.2 394.01-18.75Q393.36-20.25 391.74-20.98 390.11-21.7 388.36-21.7L388.36-21.7Q386.46-21.7 384.91-20.85 383.36-20 383.36-18.4L383.36-18.4Q383.36-16.8 384.69-16.07 386.01-15.35 387.96-14.95L387.96-14.95 391.21-14.3Q393.21-13.9 395.01-13.15 396.81-12.4 397.96-10.93 399.11-9.45 399.11-6.8L399.11-6.8Q399.11-4.45 397.66-2.8 396.21-1.15 393.91-0.28 391.61 0.6 389.01 0.6Z" opacity="1" transform="matrix(1,0,0,1,0,0)" fill="#2e30ff" class="slogan-text-1" data-fill-palette-color="secondary" id="text-1"></path></svg></g></svg></g></svg></g></svg></g><g transform="matrix(1,0,0,1,422.34460245645676,1.4827485693247553)"><svg viewBox="0 0 152.30518041599996 155.31190014836739" height="155.31190014836739" width="152.30518041599996"><g><svg xmlns="http://www.w3.org/2000/svg" xmlns:xlink="http://www.w3.org/1999/xlink" version="1.1" x="0" y="0" viewBox="5.871925765882414 5.000246868865972 88.2564528651579 89.99876010391121" enable-background="new 0 0 100 100" xml:space="preserve" height="155.31190014836739" width="152.30518041599996" class="icon-icon-0" data-fill-palette-color="accent" id="icon-0"><g fill="#fe5200" data-fill-palette-color="accent"><path fill="none" d="M60.202 66.164L66.962 60.736A4 4 0 0 0 65.537 60.08 1.2 1.2 0 0 1 65.248 60.009 1.1 1.1 0 0 1 64.951 59.909C60.895 58.566 59.055 62.869 60.202 66.164"></path><path fill="none" d="M67.759 61.546L60.697 67.217C60.997 67.709 61.381 68.15 61.851 68.517L68.461 63.228A4.3 4.3 0 0 0 67.759 61.546"></path><path fill="none" d="M44.561 60.124C44.503 60.107 44.44 60.095 44.38 60.079A1.2 1.2 0 0 1 44.091 60.008 1.1 1.1 0 0 1 43.794 59.908C40.068 58.675 38.214 62.205 38.825 65.343A23.9 23.9 0 0 1 44.561 60.124"></path><path fill="none" d="M41.496 69.02C41.581 69.062 41.663 69.107 41.752 69.145 45.064 70.549 47.393 67.31 47.401 64.289A35.5 35.5 0 0 1 41.496 69.02"></path><path fill="none" d="M24.799 55.955C25.166 50.208 26.088 44.465 27.138 38.83 27.175 38.631 27.251 38.475 27.35 38.351 34.009 23.252 53.204 22.425 67.371 22.373 68.076 22.37 68.712 23.108 68.468 23.814A26 26 0 0 0 67.167 29.686L74.097 30.238C74.615 30.279 75.042 30.557 75.194 31.074 76.108 34.171 77.743 36.943 79.085 39.861 79.134 39.967 79.161 40.071 79.178 40.173 79.206 40.255 79.228 40.341 79.24 40.435 79.873 45.441 80.523 50.631 80.778 55.829A18.45 18.45 0 0 0 87.934 53.723L86.014 52.39C85.272 51.875 85.3 50.944 86.014 50.425L91.129 46.703C87.751 43.855 84.882 40.315 83.031 36.295 82.014 34.086 81.298 31.834 80.657 29.492 79.878 26.647 78.859 23.508 75.847 22.406A11.66 11.66 0 0 1 71.818 26.904C70.589 27.715 69.45 25.743 70.669 24.939 73.605 23.003 75.573 19.323 74.658 15.759 73.702 12.038 71.014 9.648 67.351 8.617 60.265 6.621 52.561 6.889 45.579 9.191 33.268 13.249 22.157 22.026 8.788 21.913 12.064 28.866 17.902 34.416 25.052 37.311 25.893 37.652 26.282 38.88 25.324 39.391L16.739 43.967A53 53 0 0 1 22.693 46.25C23.416 46.578 23.346 47.527 22.923 48.038A27.5 27.5 0 0 1 17.883 52.765C20.19 53.825 22.491 54.897 24.799 55.955M74.784 28.559C80.145 29.424 81.015 36.294 82.283 40.542 82.493 41.247 81.395 41.546 81.186 40.845 80.038 36.999 79.274 30.43 74.482 29.657 73.758 29.54 74.066 28.443 74.784 28.559M30.648 23.104C39.453 16.284 50.5 8.386 62.303 10.146 63.027 10.254 62.718 11.35 62 11.243 50.681 9.555 39.888 17.374 31.452 23.908 30.88 24.352 30.068 23.553 30.648 23.104M25.641 29.992C33.772 24.691 41.494 18.01 50.954 15.176 57.507 13.213 67.164 12.284 71.305 19.114 71.687 19.743 70.702 20.315 70.322 19.688 65.894 12.386 54.545 14.702 48.105 17.412 40.13 20.767 33.408 26.285 26.215 30.974 25.599 31.377 25.029 30.391 25.641 29.992"></path><path fill="none" d="M57.677 61.966C57.861 61.451 58.106 60.967 58.392 60.516 58.351 60.472 58.309 60.429 58.272 60.376 56.145 57.358 51.52 58.955 48.777 60.643 49.203 61.415 49.458 62.284 49.558 63.191 50.2 63.233 50.867 63.785 50.714 64.613 50.268 67.018 50.339 71.916 53.994 71.703 57.021 71.527 57.244 65.861 57.304 63.691 57.307 63.599 57.341 63.531 57.36 63.45A6 6 0 0 1 57.677 61.966"></path><path fill="none" d="M24.679 58.395A510 510 0 0 1 19.985 56.23C18.998 59.89 19.966 64.643 24.567 64.814 24.632 64.816 24.678 64.844 24.737 64.855A70 70 0 0 1 24.679 58.395"></path><path fill="none" d="M40.56 68.28A34.3 34.3 0 0 0 47.213 62.848C46.974 61.992 46.499 61.232 45.752 60.699 43.227 62.231 41.037 64.19 39.274 66.568 39.259 66.588 39.239 66.597 39.223 66.614A5 5 0 0 0 40.485 68.351C40.511 68.328 40.527 68.301 40.56 68.28"></path><path fill="none" d="M80.638 66.018C83.529 65.012 85.137 60.403 84.973 57.356A21.6 21.6 0 0 1 80.864 58.101 70 70 0 0 1 80.638 66.018"></path><path fill="none" d="M62.889 69.135L62.91 69.145C66.106 70.5 68.388 67.53 68.55 64.605z"></path><path fill="none" d="M77.007 40.771C75.719 38.005 74.22 35.345 73.251 32.448L65.928 31.865C65.341 31.818 64.749 31.382 64.79 30.727 64.92 28.649 65.264 26.641 65.829 24.659 52.608 24.755 35.42 25.723 29.325 39.481 27.196 50.905 25.351 63.19 28.486 74.613 29.897 79.756 32.123 85.264 36.366 88.747 41.122 92.651 47.322 92.857 53.209 92.706 58.783 92.562 64.948 91.899 69.226 87.91 73.234 84.174 75.648 79.041 76.968 73.779 79.685 62.94 78.389 51.708 77.007 40.771M34.423 46.514C39.243 42.957 45.691 42.644 50.89 45.57 52.169 46.29 51.022 48.256 49.741 47.535 45.193 44.975 39.751 45.395 35.572 48.479 34.389 49.353 33.256 47.376 34.423 46.514M47.823 55.242C45.286 53.475 41.914 53.399 39.435 55.35 38.295 56.247 36.673 54.648 37.826 53.741 41.075 51.183 45.528 50.878 48.972 53.277 50.167 54.109 49.031 56.083 47.823 55.242M63.861 79.439C59.377 85.152 48.012 84.037 43.653 78.744 42.728 77.621 44.329 76 45.262 77.134 48.89 81.539 58.492 82.618 62.251 77.829 63.157 76.675 64.756 78.298 63.861 79.439M62.383 71.374C61.077 70.821 59.88 69.829 58.976 68.61 58.238 71.676 56.648 74.49 53.262 73.916 50.231 73.402 48.843 71.192 48.416 68.626 46.993 71.135 44.405 72.723 41.225 71.374 37.87 69.952 35.2 65.654 36.52 61.966 37.715 58.626 41.213 56.456 44.695 57.813 45.73 58.007 46.578 58.393 47.269 58.909 50.932 56.473 56.768 55.056 59.894 58.81 61.514 57.492 63.686 56.969 65.853 57.813 74.7 59.47 70.418 74.78 62.383 71.374M59.271 53.513C62.419 51.44 66.501 51.829 69.301 54.299 70.404 55.272 68.788 56.875 67.691 55.908 65.629 54.09 62.685 53.986 60.419 55.478 59.19 56.288 58.051 54.316 59.271 53.513M71.454 48.453C67.243 46.118 62.301 45.827 57.876 47.769 56.545 48.353 55.386 46.392 56.727 45.804 61.927 43.523 67.622 43.727 72.603 46.488 73.887 47.199 72.739 49.165 71.454 48.453"></path><path d="M37.825 53.741C36.672 54.649 38.295 56.248 39.434 55.35 41.913 53.398 45.285 53.475 47.822 55.242 49.03 56.083 50.166 54.109 48.971 53.277 45.527 50.877 41.075 51.182 37.825 53.741" fill="#fe5200" data-fill-palette-color="accent"></path><path d="M60.419 55.478C62.685 53.986 65.629 54.09 67.691 55.908 68.787 56.875 70.404 55.271 69.301 54.299 66.5 51.83 62.419 51.44 59.271 53.513 58.051 54.316 59.19 56.288 60.419 55.478" fill="#fe5200" data-fill-palette-color="accent"></path><path d="M62.251 77.829C58.492 82.618 48.89 81.54 45.262 77.134 44.328 76 42.727 77.62 43.653 78.744 48.012 84.037 59.377 85.151 63.861 79.439 64.756 78.298 63.157 76.675 62.251 77.829" fill="#fe5200" data-fill-palette-color="accent"></path><path d="M65.853 57.813C63.686 56.969 61.514 57.491 59.894 58.81 56.768 55.056 50.933 56.473 47.269 58.909 46.578 58.393 45.73 58.007 44.695 57.813 41.212 56.457 37.714 58.626 36.52 61.966 35.201 65.654 37.87 69.951 41.225 71.374 44.405 72.722 46.993 71.134 48.416 68.626 48.843 71.192 50.231 73.402 53.262 73.916 56.649 74.49 58.239 71.676 58.976 68.61 59.879 69.829 61.077 70.821 62.383 71.374 70.418 74.78 74.7 59.47 65.853 57.813M60.697 67.217L67.759 61.546C68.112 62.041 68.341 62.616 68.461 63.228L61.851 68.517A4.8 4.8 0 0 1 60.697 67.217M64.951 59.908C65.039 59.951 65.135 59.987 65.248 60.008 65.349 60.047 65.445 60.068 65.537 60.079A4 4 0 0 1 66.962 60.735L60.202 66.163C59.055 62.869 60.895 58.566 64.951 59.908M43.793 59.908C43.881 59.951 43.977 59.987 44.09 60.008 44.191 60.047 44.287 60.068 44.379 60.079 44.439 60.094 44.502 60.106 44.56 60.124A24 24 0 0 0 38.823 65.343C38.213 62.205 40.067 58.675 43.793 59.908M39.223 66.614C39.239 66.597 39.259 66.588 39.274 66.568 41.037 64.191 43.227 62.231 45.752 60.699 46.499 61.232 46.973 61.992 47.213 62.848A34.3 34.3 0 0 1 40.56 68.28C40.528 68.3 40.511 68.327 40.485 68.35A5 5 0 0 1 39.223 66.614M41.752 69.145C41.663 69.107 41.581 69.062 41.496 69.02A35.4 35.4 0 0 0 47.402 64.289C47.393 67.31 45.064 70.549 41.752 69.145M53.994 71.705C50.339 71.918 50.268 67.019 50.714 64.615 50.868 63.786 50.201 63.235 49.558 63.193 49.458 62.286 49.204 61.417 48.777 60.645 51.52 58.957 56.145 57.36 58.272 60.378 58.309 60.431 58.351 60.474 58.392 60.518A7.3 7.3 0 0 0 57.677 61.968 6 6 0 0 0 57.359 63.454C57.34 63.534 57.306 63.603 57.303 63.695 57.244 65.864 57.021 71.529 53.994 71.705M62.91 69.145L62.889 69.135 68.55 64.605C68.388 67.53 66.106 70.5 62.91 69.145" fill="#fe5200" data-fill-palette-color="accent"></path><path d="M93.785 45.954C89.099 42.313 85.631 37.537 83.71 31.915 82.182 27.444 81.599 22.161 76.654 20.282 77.461 17.247 76.97 13.9 74.972 11.007 70.873 5.07 61.124 4.725 54.698 5.109 37.689 6.125 24.36 20.743 7.03 19.576 6.346 19.53 5.661 20.35 5.933 21.017 9.065 28.72 14.804 34.852 22.19 38.484L13.157 43.298C12.285 43.763 12.494 45.139 13.429 45.378A49 49 0 0 1 20.222 47.651 25.7 25.7 0 0 1 15.012 51.969C14.352 52.381 14.193 53.565 15.012 53.934 15.978 54.37 16.938 54.82 17.9 55.266 16.243 60.428 18.362 66.858 24.569 67.089 24.698 67.094 24.801 67.061 24.907 67.033 25.217 70.333 25.802 73.613 26.759 76.85 28.322 82.136 31.015 87.281 35.325 90.82 39.9 94.575 45.945 95.001 51.618 94.999 57.368 94.996 63.238 94.47 68.273 91.463 72.817 88.749 75.658 83.914 77.607 79.155 79.028 75.687 79.888 72.08 80.375 68.407 85.125 67.592 87.765 61.119 87.194 56.587A21.3 21.3 0 0 0 90.629 54.794C91.381 54.308 91.34 53.322 90.629 52.829L88.549 51.385 93.558 47.741C94.08 47.359 94.416 46.444 93.785 45.954M22.923 48.038C23.345 47.527 23.416 46.579 22.693 46.25A53 53 0 0 0 16.739 43.967L25.324 39.391C26.282 38.88 25.893 37.651 25.052 37.311 17.902 34.416 12.064 28.866 8.788 21.913 22.157 22.026 33.268 13.249 45.579 9.191 52.561 6.89 60.265 6.622 67.351 8.617 71.014 9.649 73.702 12.038 74.658 15.759 75.574 19.323 73.605 23.003 70.669 24.939 69.45 25.743 70.588 27.715 71.818 26.904A11.66 11.66 0 0 0 75.847 22.406C78.86 23.508 79.878 26.647 80.657 29.492 81.299 31.835 82.014 34.086 83.031 36.295 84.882 40.315 87.751 43.855 91.129 46.703L86.014 50.425C85.3 50.945 85.272 51.875 86.014 52.39L87.934 53.723A18.45 18.45 0 0 1 80.778 55.829C80.523 50.631 79.873 45.441 79.24 40.435A1.3 1.3 0 0 0 79.178 40.173 1.3 1.3 0 0 0 79.085 39.861C77.743 36.943 76.108 34.171 75.194 31.074 75.041 30.557 74.615 30.28 74.097 30.238L67.167 29.686A26 26 0 0 1 68.468 23.814C68.711 23.108 68.075 22.371 67.371 22.373 53.204 22.424 34.01 23.252 27.35 38.351 27.251 38.475 27.175 38.631 27.138 38.83 26.087 44.465 25.165 50.208 24.799 55.955 22.492 54.896 20.19 53.825 17.884 52.765A27.5 27.5 0 0 0 22.923 48.038M24.567 64.814C19.965 64.643 18.997 59.89 19.985 56.23 21.547 56.958 23.11 57.683 24.679 58.395A70 70 0 0 0 24.737 64.855C24.678 64.844 24.632 64.817 24.567 64.814M76.968 73.778C75.649 79.041 73.234 84.173 69.226 87.909 64.947 91.897 58.783 92.561 53.209 92.705 47.322 92.857 41.122 92.65 36.366 88.746 32.124 85.264 29.898 79.755 28.486 74.612 25.351 63.189 27.196 50.903 29.325 39.48 35.42 25.723 52.608 24.755 65.829 24.658A28.5 28.5 0 0 0 64.79 30.726C64.749 31.381 65.341 31.817 65.928 31.864L73.251 32.447C74.22 35.343 75.719 38.004 77.007 40.77 78.389 51.708 79.685 62.94 76.968 73.778M80.638 66.018C80.87 63.398 80.93 60.752 80.864 58.1 82.274 57.981 83.644 57.734 84.973 57.355 85.137 60.403 83.528 65.012 80.638 66.018" fill="#fe5200" data-fill-palette-color="accent"></path><path d="M49.741 47.536C51.022 48.257 52.169 46.29 50.89 45.571 45.691 42.645 39.243 42.958 34.423 46.515 33.256 47.376 34.389 49.353 35.572 48.48 39.751 45.396 45.193 44.977 49.741 47.536" fill="#fe5200" data-fill-palette-color="accent"></path><path d="M72.603 46.487C67.622 43.725 61.927 43.522 56.727 45.803 55.385 46.392 56.545 48.352 57.876 47.768 62.301 45.827 67.243 46.117 71.454 48.452 72.739 49.165 73.887 47.199 72.603 46.487" fill="#fe5200" data-fill-palette-color="accent"></path><path d="M26.216 30.975C33.409 26.286 40.131 20.768 48.106 17.413 54.546 14.704 65.895 12.387 70.323 19.689 70.703 20.315 71.687 19.744 71.306 19.115 67.164 12.285 57.508 13.214 50.955 15.177 41.495 18.01 33.773 24.692 25.642 29.993 25.029 30.391 25.599 31.377 26.216 30.975" fill="#fe5200" data-fill-palette-color="accent"></path><path d="M31.453 23.908C39.889 17.374 50.682 9.555 62.001 11.243 62.719 11.35 63.027 10.253 62.304 10.146 50.5 8.386 39.454 16.284 30.649 23.104 30.068 23.553 30.88 24.352 31.453 23.908" fill="#fe5200" data-fill-palette-color="accent"></path><path d="M74.481 29.656C79.273 30.429 80.037 36.998 81.185 40.844 81.394 41.546 82.493 41.247 82.282 40.541 81.014 36.293 80.144 29.423 74.783 28.558 74.066 28.443 73.758 29.54 74.481 29.656" fill="#fe5200" data-fill-palette-color="accent"></path></g></svg></g></svg></g></svg></g><defs></defs></svg><rect width="395.52" height="108.93918007249188" fill="none" stroke="none" visibility="hidden"></rect></g></svg></g></svg>